<svg width="50" height="40" viewBox="0 0 50 40" fill="none" xmlns="http://www.w3.org/2000/svg">
<path d="M11.25 22.5H23.4375C25.1562 24.0625 27.4219 25 30 25C32.5 25 34.7656 24.0625 36.4844 22.5H41.25C46.0156 22.5 50 18.5938 50 13.75C50 8.98438 46.0156 5 41.25 5C39.8438 5 38.5156 5.39062 37.3438 6.01562C35.3906 2.42188 31.7188 0 27.5 0C24.2969 0 21.4062 1.40625 19.375 3.51562C17.2656 1.40625 14.4531 0 11.25 0C5 0 0 5.07812 0 11.25C0 17.5 5 22.5 11.25 22.5ZM10.625 36.25H1.79688C0.78125 36.25 0 37.1094 0 38.125C0 39.0625 0.78125 40 1.79688 40H10.625C11.6406 40 12.5 39.2188 12.5 38.125C12.5 37.1094 11.6406 36.25 10.625 36.25ZM48.125 28.75H6.875C5.78125 28.75 5 29.6094 5 30.625C5 31.5625 5.78125 32.5 6.79688 32.5H48.0469C49.0625 32.5 49.9219 31.7188 49.9219 30.7031C49.9219 29.7656 49.1406 28.75 48.125 28.75ZM43.125 36.25H18.0469C17.0312 36.25 16.25 37.1094 16.25 38.125C16.25 39.0625 17.0312 40 18.0469 40H43.125C44.1406 40 45 39.2188 45 38.2031C45 37.2656 44.1406 36.25 43.125 36.25Z" fill="#CCCCCC"/>
</svg>
