<svg width="50" height="42" viewBox="0 0 50 42" fill="none" xmlns="http://www.w3.org/2000/svg">
<path d="M50 32.8125C50 37.6562 45.0781 41.0938 40.1562 39.7656L35.5469 38.5156C32.2656 37.6562 29.9219 34.8438 29.9219 31.5625L30 24.7656L36.6406 29.2188C36.9531 29.4531 37.3438 29.375 37.5 29.0625L38.2031 28.0469C38.4375 27.7344 38.3594 27.3438 38.0469 27.1875L25 18.4375L11.875 27.1875C11.7188 27.2656 11.6406 27.4219 11.6406 27.5781C11.5625 27.7344 11.6406 27.8906 11.7188 28.0469L12.4219 29.0625C12.5 29.2188 12.6562 29.2969 12.8125 29.2969C12.9688 29.375 13.125 29.2969 13.2812 29.2188L20 24.7656V31.5625C20 34.8438 17.6562 37.6562 14.375 38.5156L9.76562 39.7656C4.84375 41.0938 0 37.5781 0 32.8125C0 32.0312 0.078125 31.25 0.234375 30.5469C1.95312 24.1406 4.60938 18.0469 8.20312 12.5C10 9.76562 11.0938 7.5 14.5312 7.5C17.5 7.5 20 9.84375 20 12.6562V17.3438L22.5 15.625C22.8906 15.3906 23.125 15 23.125 14.6094V1.25C23.125 0.625 23.6719 0 24.375 0H25.625C26.25 0 26.875 0.625 26.875 1.25V14.6094C26.875 15 27.0312 15.3906 27.4219 15.625L30 17.3438V12.6562C30 9.84375 32.4219 7.5 35.3906 7.5C38.8281 7.5 39.9219 9.76562 41.7188 12.5C45.3125 18.0469 47.9688 24.1406 49.6875 30.5469C49.8438 31.25 50 32.0312 50 32.8125Z" fill="white"/>
</svg>
