<svg width="32" height="32" viewBox="0 0 32 32" fill="none" xmlns="http://www.w3.org/2000/svg">
<path d="M26 8C25.9375 8 25.875 8.0625 25.875 8.0625C25.9375 7.6875 26 7.375 26 7C26 4.25 23.75 2 21 2C19.4375 2 18.0625 2.75 17.1875 3.8125C16 1.5625 13.6875 0 11 0C7.125 0 4 3.1875 4 7C4 7.5 4 7.9375 4.125 8.375C1.6875 9.125 0 11.375 0 14C0 17.3125 2.6875 20 6 20H26C29.3125 20 32 17.3125 32 14C32 10.6875 29.3125 8 26 8ZM23 29C23 30.6875 24.3125 32 26 32C27.625 32 29 30.6875 29 29C29 27.375 25.9375 23.0625 25.9375 23.0625C25.9375 23.0625 23 27.375 23 29ZM3 29C3 30.6875 4.3125 32 6 32C7.625 32 9 30.6875 9 29C9 27.375 5.9375 23.0625 5.9375 23.0625C5.9375 23.0625 3 27.375 3 29ZM13 29C13 30.6875 14.3125 32 16 32C17.625 32 19 30.6875 19 29C19 27.375 15.9375 23.0625 15.9375 23.0625C15.9375 23.0625 13 27.375 13 29Z" fill="#CCCCCC"/>
</svg>
