<svg width="40" height="40" viewBox="0 0 40 40" fill="none" xmlns="http://www.w3.org/2000/svg">
<path d="M32.5 10C32.4219 10 32.3438 10.0781 32.3438 10.0781C32.4219 9.60938 32.5 9.21875 32.5 8.75C32.5 5.3125 29.6875 2.5 26.25 2.5C24.2969 2.5 22.5781 3.4375 21.4844 4.76562C20 1.95312 17.1094 0 13.75 0C8.90625 0 5 3.98438 5 8.75C5 9.375 5 9.92188 5.15625 10.4688C2.10938 11.4062 0 14.2188 0 17.5C0 21.6406 3.35938 25 7.5 25H32.5C36.6406 25 40 21.6406 40 17.5C40 13.3594 36.6406 10 32.5 10ZM28.75 36.25C28.75 38.3594 30.3906 40 32.5 40C34.5312 40 36.25 38.3594 36.25 36.25C36.25 34.2188 32.4219 28.8281 32.4219 28.8281C32.4219 28.8281 28.75 34.2188 28.75 36.25ZM3.75 36.25C3.75 38.3594 5.39062 40 7.5 40C9.53125 40 11.25 38.3594 11.25 36.25C11.25 34.2188 7.42188 28.8281 7.42188 28.8281C7.42188 28.8281 3.75 34.2188 3.75 36.25ZM16.25 36.25C16.25 38.3594 17.8906 40 20 40C22.0312 40 23.75 38.3594 23.75 36.25C23.75 34.2188 19.9219 28.8281 19.9219 28.8281C19.9219 28.8281 16.25 34.2188 16.25 36.25Z" fill="#C6C6C6"/>
</svg>
