<svg width="41" height="40" viewBox="0 0 41 40" fill="none" xmlns="http://www.w3.org/2000/svg">
<path d="M4.25 27.5C2.14062 27.5 0.5 29.2188 0.5 31.25C0.5 33.3594 2.14062 35 4.25 35C6.28125 35 8 33.3594 8 31.25C8 29.2188 6.28125 27.5 4.25 27.5ZM36.75 27.5C34.6406 27.5 33 29.2188 33 31.25C33 33.3594 34.6406 35 36.75 35C38.7812 35 40.5 33.3594 40.5 31.25C40.5 29.2188 38.7812 27.5 36.75 27.5ZM27.4531 28.4375C27.7656 27.2656 27.5312 26.0156 26.6719 25.0781C25.7344 24.2188 24.4844 23.9844 23.3125 24.2969C22.7656 23.2812 21.75 22.5 20.5 22.5C19.1719 22.5 18.1562 23.2812 17.6094 24.2969C16.4375 23.9844 15.1875 24.2188 14.25 25.0781C13.3906 26.0156 13.1562 27.2656 13.4688 28.4375C12.4531 28.9844 11.6719 30 11.6719 31.3281C11.6719 32.5781 12.4531 33.5938 13.4688 34.1406C13.1562 35.3125 13.3906 36.5625 14.25 37.5C14.9531 38.125 15.7344 38.4375 16.5938 38.4375C16.9062 38.4375 17.2969 38.3594 17.6094 38.2812C18.1562 39.2969 19.1719 40 20.5 40C21.75 40 22.7656 39.2969 23.3125 38.2031C23.7031 38.3594 24.0156 38.4375 24.3281 38.4375C25.1875 38.4375 26.0469 38.125 26.6719 37.5C27.5312 36.5625 27.7656 35.3125 27.4531 34.1406C28.4688 33.5938 29.25 32.5781 29.25 31.25C29.25 30 28.4688 28.9844 27.4531 28.4375ZM40.5 17.5C40.5 13.3594 37.1406 10 33 10C32.9219 10 32.8438 10.0781 32.8438 10.0781C32.9219 9.60938 33 9.21875 33 8.75C33 5.3125 30.1875 2.5 26.75 2.5C24.7969 2.5 23.0781 3.4375 21.9844 4.76562C20.5 1.95312 17.6094 0 14.25 0C9.40625 0 5.5 3.98438 5.5 8.75C5.5 9.375 5.5 9.92188 5.65625 10.4688C2.60938 11.4062 0.5 14.2188 0.5 17.5C0.5 21.6406 3.85938 25 8 25H11.3594C11.6719 24.375 11.9844 23.8281 12.5312 23.3594C13.5469 22.2656 14.9531 21.7188 16.5156 21.6406C17.5312 20.625 18.9375 20 20.5 20C21.9844 20 23.3906 20.625 24.4844 21.6406C25.9688 21.7188 27.375 22.2656 28.3906 23.3594C28.9375 23.8281 29.3281 24.375 29.5625 25H33C37.1406 25 40.5 21.6406 40.5 17.5Z" fill="#C6C6C6"/>
</svg>
