<svg width="26" height="26" viewBox="0 0 26 26" fill="none" xmlns="http://www.w3.org/2000/svg">
<path d="M24.6719 16.2344L22.4219 13.0469L24.6719 9.8125C25 9.29688 25.0938 8.6875 24.8594 8.125C24.625 7.5625 24.1094 7.14062 23.5 7.04688L19.6562 6.34375L18.9531 2.5C18.8594 1.89062 18.4375 1.375 17.875 1.14062C17.3125 0.90625 16.7031 1 16.1875 1.32812L13 3.57812L9.76562 1.32812C9.25 1 8.64062 0.90625 8.07812 1.14062C7.51562 1.375 7.09375 1.89062 7 2.5L6.29688 6.34375L2.45312 7.04688C1.84375 7.14062 1.32812 7.5625 1.09375 8.125C0.859375 8.6875 0.953125 9.29688 1.28125 9.8125L3.53125 13L1.28125 16.2344C0.953125 16.75 0.859375 17.3594 1.09375 17.9219C1.32812 18.4844 1.84375 18.9062 2.45312 19L6.29688 19.7031L7 23.5469C7.09375 24.1562 7.51562 24.6719 8.07812 24.9062C8.64062 25.0938 9.25 25.0469 9.76562 24.7188L13 22.4688L16.1875 24.7188C16.5156 24.9062 16.8438 25 17.2188 25C17.4531 25 17.6875 25 17.875 24.9062C18.4375 24.6719 18.8594 24.1562 18.9531 23.5469L19.6562 19.7031L23.5 19C24.1094 18.9062 24.625 18.4844 24.8594 17.9219C25.0938 17.3594 25 16.75 24.6719 16.2344ZM22.375 16.9375L17.7344 17.7812L16.8906 22.4219L13 19.75L9.0625 22.4219L8.21875 17.7812L3.57812 16.9375L6.25 13L3.57812 9.10938L8.21875 8.26562L9.0625 3.625L13 6.29688L16.8906 3.625L17.7344 8.26562L22.375 9.10938L19.7031 13L22.375 16.9375ZM13 7.75C10.0938 7.75 7.75 10.0938 7.75 12.9531C7.75 15.8594 10.1406 18.1562 13 18.1562C15.8125 18.1562 18.2031 15.8125 18.2031 12.9531C18.2031 10.1406 15.8594 7.75 13 7.75ZM13 16C11.3125 16 10 14.6406 10 13C10 11.3125 11.3125 10 13 10C14.6406 10 15.9531 11.3594 15.9531 13C15.9531 14.5938 14.6406 16 13 16Z" fill="white"/>
</svg>
