<svg width="42" height="42" viewBox="0 0 42 42" fill="none" xmlns="http://www.w3.org/2000/svg">
<path d="M21 13.5C16.7812 13.5 13.5 16.8594 13.5 20.9219C13.5 24.9844 16.7812 28.5 21 28.5C25.1406 28.5 28.4219 25.1406 28.4219 21C28.4219 16.9375 25.1406 13.5 21 13.5ZM40.7656 28.1094L35.8438 21L40.7656 13.8906C41.2344 13.1094 40.8438 12.1719 39.9844 12.0156L31.4688 10.4531L29.9062 1.9375C29.75 1.07812 28.8125 0.6875 28.1094 1.15625L21 6.15625L13.8125 1.23438C13.0312 0.765625 12.0938 1.15625 11.9375 2.01562L10.4531 10.5312L1.9375 12.0938C1.07812 12.25 0.6875 13.1875 1.15625 13.8906L6.07812 21L1.15625 28.1875C0.6875 28.8906 1.07812 29.8281 1.9375 29.9844L10.4531 31.5469L12.0156 40.0625C12.1719 40.9219 13.1094 41.3125 13.8125 40.8438L21 35.9219L28.1094 40.8438C28.8125 41.3125 29.75 40.9219 29.9062 40.0625L31.4688 31.5469L39.9844 29.9844C40.8438 29.8281 41.2344 28.8906 40.7656 28.1094ZM21 31C15.4531 31 11 26.4688 11 21C11 15.5312 15.5312 11.0781 21 11.0781C26.3906 11.0781 30.9219 15.6094 30.9219 21C30.9219 26.5469 26.4688 31 21 31Z" fill="#C6C6C6"/>
</svg>
