<svg width="46" height="40" viewBox="0 0 46 40" fill="none" xmlns="http://www.w3.org/2000/svg">
<path d="M17.9219 10.9375C17.0625 9.84375 15.7344 9.0625 14.25 9.0625C11.5938 9.0625 9.5625 11.1719 9.5625 13.75C9.5625 15.7031 10.8125 17.4219 12.5312 18.0469C13.3906 17.1875 14.4062 16.3281 15.5781 15.7812C15.8906 13.9844 16.75 12.3438 17.9219 10.9375ZM7.375 13.75C7.375 9.92188 10.4219 6.875 14.25 6.875C16.3594 6.875 18.3125 7.96875 19.5625 9.53125C21.2031 8.28125 23.2344 7.5 25.5 7.5C25.4219 7.5 25.5 7.5 25.5 7.5L21.4375 6.5625L20.3438 0.703125C20.2656 0.3125 19.9531 0 19.5625 0C19.4062 0 19.25 0.078125 19.0938 0.15625L14.1719 3.59375L9.32812 0.15625C9.17188 0.078125 9.01562 0 8.85938 0C8.46875 0 8.15625 0.3125 8.07812 0.703125L6.98438 6.5625L1.125 7.65625C0.734375 7.73438 0.5 8.04688 0.5 8.4375C0.5 8.59375 0.5 8.75 0.578125 8.90625L4.01562 13.8281L0.578125 18.6719C0.5 18.8281 0.5 18.9844 0.5 19.1406C0.5 19.5312 0.734375 19.8438 1.125 19.9219L6.98438 21.0156L8.07812 26.875C8.15625 27.2656 8.46875 27.5 8.85938 27.5C9.01562 27.5 9.17188 27.5 9.32812 27.4219L10.8125 26.3281C10.5781 25.5469 10.4219 24.6875 10.4219 23.75C10.4219 22.4219 10.7344 21.1719 11.3594 20C9.01562 18.9062 7.375 16.5625 7.375 13.75ZM40.3438 17.6562C39.7969 14.7656 37.2969 12.5 34.1719 12.5C33.2344 12.5 32.375 12.7344 31.5156 13.125C30.1875 11.25 28 10 25.4219 10C21.2812 10 17.9219 13.3594 17.9219 17.5C17.9219 17.5781 18 17.6562 18 17.6562C15.1094 18.2031 12.9219 20.7812 12.9219 23.75C12.9219 27.1875 15.6562 30 19.1719 30H39.1719C42.6875 30 45.5 27.2656 45.5 23.75C45.5 20.7031 43.2344 18.2031 40.3438 17.6562ZM41.125 32.5C40.5 32.5 39.875 32.7344 39.5625 33.2812L37.0625 37.0312C36.8281 37.3438 36.6719 37.7344 36.6719 38.125C36.75 39.2188 37.5312 40 38.625 40C39.1719 40 39.7969 39.7656 40.1094 39.2188L42.6094 35.4688C42.8438 35.1562 43 34.7656 43 34.4531C43 33.3594 42.1406 32.5 41.125 32.5ZM33.625 32.5C33 32.5 32.375 32.7344 32.0625 33.2812L29.5625 37.0312C29.3281 37.3438 29.1719 37.7344 29.1719 38.125C29.25 39.2188 30.0312 40 31.0469 40C31.5938 40 32.2188 39.7656 32.6094 39.2188L35.1094 35.4688C35.2656 35.1562 35.4219 34.7656 35.4219 34.4531C35.5 33.3594 34.6406 32.5 33.625 32.5ZM26.125 32.5C25.5 32.5 24.875 32.7344 24.5625 33.2812L22.0625 37.0312C21.8281 37.3438 21.6719 37.7344 21.6719 38.125C21.75 39.2188 22.5312 40 23.5469 40C24.0938 40 24.7188 39.7656 25.1094 39.2188L27.6094 35.4688C27.7656 35.1562 27.9219 34.7656 27.9219 34.4531C28 33.3594 27.1406 32.5 26.125 32.5ZM18.625 32.5C18 32.5 17.375 32.7344 17.0625 33.2812L14.5625 37.0312C14.3281 37.3438 14.1719 37.7344 14.1719 38.125C14.25 39.2188 15.0312 40 16.0469 40C16.5938 40 17.2188 39.7656 17.6094 39.2188L20.1094 35.4688C20.2656 35.1562 20.4219 34.7656 20.4219 34.4531C20.5 33.3594 19.6406 32.5 18.625 32.5Z" fill="#C6C6C6"/>
</svg>
