<svg width="17" height="32" viewBox="0 0 17 32" fill="none" xmlns="http://www.w3.org/2000/svg">
<path d="M13 24C13 22.5625 12.1875 21.25 11 20.5625V18C11 16.9375 10.0625 16 9 16C7.875 16 7 16.9375 7 18V20.5625C5.75 21.25 5 22.5625 5 24C5 26.25 6.75 28 9 28C11.1875 28 13 26.25 13 24ZM15 18.75V6C15 2.6875 12.3125 0 9 0C5.625 0 3 2.6875 3 6V18.75C1.75 20.125 1 22 1 24C0.9375 28.375 4.5 32 8.9375 32C8.9375 32 8.9375 32 9 32C13.375 32 17 28.4375 17 24C17 22 16.1875 20.125 15 18.75ZM14 24C14 26.8125 11.75 29 9 29H8.9375C6.1875 29 3.9375 26.75 4 24C4 21.875 5.1875 20.75 6 19.875V6C6 4.375 7.3125 3 9 3C10.625 3 12 4.375 12 6V19.875C12.75 20.75 14 21.875 14 24Z" fill="white"/>
</svg>
