<svg width="32" height="32" viewBox="0 0 32 32" fill="none" xmlns="http://www.w3.org/2000/svg">
<path d="M2 12H22C25.25 12 28 9.3125 28 6C28 2.75 25.25 0 22 0H20C18.875 0 18 0.9375 18 2C18 3.125 18.875 4 20 4H22C23.0625 4 24 4.9375 24 6C24 7.125 23.0625 8 22 8H2C0.875 8 0 8.9375 0 10C0 11.125 0.875 12 2 12ZM10 20H2C0.875 20 0 20.9375 0 22C0 23.125 0.875 24 2 24H10C11.0625 24 12 24.9375 12 26C12 27.125 11.0625 28 10 28H8C6.875 28 6 28.9375 6 30C6 31.125 6.875 32 8 32H10C13.25 32 16 29.3125 16 26C16 22.75 13.25 20 10 20ZM26 14H2C0.875 14 0 14.9375 0 16C0 17.125 0.875 18 2 18H26C27.0625 18 28 18.9375 28 20C28 21.125 27.0625 22 26 22H24C22.875 22 22 22.9375 22 24C22 25.125 22.875 26 24 26H26C29.25 26 32 23.3125 32 20C32 16.75 29.25 14 26 14Z" fill="#CCCCCC"/>
</svg>
